<svg width="40" height="41" viewBox="0 0 40 41" fill="none" xmlns="http://www.w3.org/2000/svg">
<path d="M20.0636 4.0918C24.4054 4.0918 24.9471 4.10778 26.6506 4.18768C28.3525 4.26758 29.5111 4.53445 30.5306 4.93076C31.5853 5.33666 32.4738 5.88638 33.3623 6.77328C34.1749 7.57213 34.8037 8.53844 35.2048 9.60498C35.5996 10.6229 35.868 11.7831 35.9479 13.485C36.023 15.1885 36.0438 15.7302 36.0438 20.072C36.0438 24.4139 36.0278 24.9556 35.9479 26.6591C35.868 28.361 35.5996 29.5195 35.2048 30.5391C34.8048 31.6062 34.1759 32.5728 33.3623 33.3708C32.5633 34.1831 31.597 34.8118 30.5306 35.2133C29.5127 35.608 28.3525 35.8765 26.6506 35.9564C24.9471 36.0315 24.4054 36.0523 20.0636 36.0523C15.7217 36.0523 15.18 36.0363 13.4765 35.9564C11.7746 35.8765 10.6161 35.608 9.59652 35.2133C8.52957 34.813 7.56308 34.1841 6.76483 33.3708C5.95208 32.5721 5.3233 31.6057 4.92231 30.5391C4.526 29.5211 4.25913 28.361 4.17922 26.6591C4.10412 24.9556 4.08334 24.4139 4.08334 20.072C4.08334 15.7302 4.09932 15.1885 4.17922 13.485C4.25913 11.7815 4.526 10.6245 4.92231 9.60498C5.32219 8.53778 5.95112 7.57121 6.76483 6.77328C7.56331 5.96026 8.52973 5.33143 9.59652 4.93076C10.6161 4.53445 11.773 4.26758 13.4765 4.18768C15.18 4.11257 15.7217 4.0918 20.0636 4.0918ZM20.0636 12.0819C17.9445 12.0819 15.9121 12.9237 14.4137 14.4222C12.9153 15.9206 12.0735 17.9529 12.0735 20.072C12.0735 22.1911 12.9153 24.2235 14.4137 25.7219C15.9121 27.2203 17.9445 28.0621 20.0636 28.0621C22.1827 28.0621 24.215 27.2203 25.7134 25.7219C27.2119 24.2235 28.0537 22.1911 28.0537 20.072C28.0537 17.9529 27.2119 15.9206 25.7134 14.4222C24.215 12.9237 22.1827 12.0819 20.0636 12.0819ZM30.4507 11.6824C30.4507 11.1526 30.2403 10.6446 29.8657 10.2699C29.4911 9.89533 28.983 9.68488 28.4532 9.68488C27.9234 9.68488 27.4153 9.89533 27.0407 10.2699C26.6661 10.6446 26.4557 11.1526 26.4557 11.6824C26.4557 12.2122 26.6661 12.7203 27.0407 13.0949C27.4153 13.4695 27.9234 13.6799 28.4532 13.6799C28.983 13.6799 29.4911 13.4695 29.8657 13.0949C30.2403 12.7203 30.4507 12.2122 30.4507 11.6824ZM20.0636 15.278C21.335 15.278 22.5544 15.783 23.4535 16.6821C24.3526 17.5812 24.8576 18.8006 24.8576 20.072C24.8576 21.3435 24.3526 22.5629 23.4535 23.462C22.5544 24.361 21.335 24.8661 20.0636 24.8661C18.7921 24.8661 17.5727 24.361 16.6737 23.462C15.7746 22.5629 15.2695 21.3435 15.2695 20.072C15.2695 18.8006 15.7746 17.5812 16.6737 16.6821C17.5727 15.783 18.7921 15.278 20.0636 15.278Z" fill="#A6A6A6"/>
</svg>
