<svg width="54" height="61" viewBox="0 0 54 61" fill="none" xmlns="http://www.w3.org/2000/svg">
<path d="M45.9801 59.4511C46.6245 58.4603 47.085 57.3595 47.3393 56.2024C47.8264 54.3321 48.0068 50.5247 48.067 48.2476C48.067 47.2335 48.067 46.517 48.067 46.4259C48.067 46.4259 48.1512 47.4157 48.1752 48.9823C48.2059 50.8594 48.1316 52.7367 47.9527 54.6053C47.6821 57.3986 46.6777 58.856 45.95 59.4632L45.9801 59.4511ZM44.5066 59.4632C45.1674 58.3487 45.6294 57.1258 45.8718 55.8502C46.5755 52.814 46.6477 45.2114 46.6236 44.841C46.814 47.906 46.7779 50.9811 46.5153 54.0406C46.2387 57.1922 45.1802 58.8499 44.5066 59.4632ZM42.6483 59.4632C43.5206 58.3993 44.105 57.1251 44.3443 55.7652C44.9457 52.8626 45.3306 44.3856 45.3847 42.9646C45.3847 42.9646 45.499 47.6586 45.2163 51.6299C44.7713 57.9087 43.5143 58.9167 42.6723 59.4875L42.6483 59.4632ZM42.1311 57.4108C42.0709 57.3136 38.8354 47.0878 36.7184 39.2908C38.6429 44.8106 40.0201 49.2981 42.3416 56.7246C42.2849 56.9595 42.2084 57.189 42.113 57.4108H42.1311ZM40.0262 56.9796C39.2143 54.9454 38.8955 53.5973 37.5183 49.1463C35.9065 43.9544 34.3549 37.3052 34.3549 37.3052C34.3549 37.3052 36.7605 44.9989 38.3542 50.2515C39.5571 54.1864 40.8621 57.9937 41.3192 58.4249C41.253 58.4977 40.8621 59.0989 40.0201 56.9918L40.0262 56.9796ZM38.8474 58.3338C36.0388 53.0569 32.4364 37.0805 31.9733 35.3377C31.9733 35.3377 37.831 56.2145 39.4909 58.5585C39.8517 59.0685 40.0923 59.2386 40.399 59.105C40.399 59.105 39.6533 59.8458 38.8534 58.3338H38.8474ZM27.9198 59.4086H27.8837C27.4424 59.4034 27.0168 59.2422 26.6809 58.9532C29.0144 56.8582 31.7207 52.6258 33.8978 48.6726C34.1023 49.4378 34.3007 50.1786 34.4992 50.8769C31.4441 56.5303 29.2429 59.4086 27.9198 59.4086ZM26.1156 58.0484C25.9321 57.381 25.875 56.6847 25.9472 55.9959C28.1002 53.0083 30.4397 48.8062 32.7611 44.4584C33.0318 45.4482 33.2784 46.3834 33.5009 47.2274C30.8366 52.1885 28.0882 56.1963 26.1096 58.0727L26.1156 58.0484ZM24.1309 59.2021H24.0648C23.954 59.1866 23.8481 59.1457 23.7553 59.0826C23.6626 59.0194 23.5853 58.9357 23.5295 58.8378C24.1044 58.2692 24.639 57.6605 25.1293 57.0161C25.1497 57.5451 25.2595 58.0668 25.454 58.5585C25.0856 58.8938 24.6234 59.1059 24.1309 59.1657V59.2021ZM22.886 55.4494C24.1737 53.791 25.378 52.0683 26.4945 50.2879C25.9231 51.8381 25.5021 53.4406 25.2375 55.0729C24.5968 56.0086 23.8914 56.8974 23.1266 57.7326C22.956 56.9841 22.8772 56.2173 22.892 55.4494H22.886ZM21.8937 54.1681C21.1386 55.1839 20.3147 56.1456 19.4279 57.0464C19.2861 56.4077 19.2015 55.7574 19.1753 55.1033C20.3781 53.482 21.581 51.5692 22.7838 49.4985C22.3363 51.0231 22.0303 52.5863 21.8696 54.1681H21.8937ZM20.8232 59.2021H20.727C20.5618 59.1695 20.4067 59.0973 20.2749 58.9916C20.143 58.886 20.0382 58.7499 19.9692 58.5949C20.6412 57.995 21.2721 57.3499 21.8576 56.6639C21.9081 57.2503 22.0169 57.8301 22.1824 58.3945C22.1824 58.4431 22.2124 58.4795 22.2305 58.5281C21.8436 58.8941 21.35 59.1241 20.8232 59.1839V59.2021ZM15.1098 52.2553C15.1699 51.6056 15.1399 49.541 16.6795 45.0839C17.9364 41.5315 23.5055 25.5612 26.4824 27.9052C26.8819 28.2153 27.2153 28.6035 27.4627 29.0468C26.7952 30.2187 25.887 31.5972 24.5158 34.3904C24.173 35.0888 23.6378 36.1696 23.2108 37.0441C21.4066 40.7725 18.165 47.2881 15.1279 52.2918L15.1098 52.2553ZM18.1349 53.8949C17.3977 54.9658 16.5836 55.9806 15.6992 56.9311C15.5221 56.2369 15.4113 55.5273 15.3684 54.8118C16.493 53.1601 17.6598 51.2048 18.8446 49.0552C18.4526 50.6371 18.2149 52.254 18.1349 53.8827V53.8949ZM16.7937 58.6435C16.6316 58.6239 16.4809 58.5489 16.3668 58.4309C17.0309 57.7873 17.6517 57.0996 18.2251 56.3724C18.2921 56.8815 18.3966 57.3849 18.5378 57.8784C18.0664 58.3366 17.4473 58.6082 16.7937 58.6435ZM14.328 45.1992C13.3697 47.6375 12.2444 50.0054 10.9601 52.2857C11.4773 41.7076 19.9812 25.5309 24.7925 18.4808C27.7454 14.1634 30.4457 11.9166 32.7792 11.4733C36.1711 10.8297 37.2236 14.0419 37.6867 15.0317C37.3724 14.7513 36.9909 14.5587 36.5801 14.4731C35.8714 14.3831 35.1521 14.4347 34.4631 14.6249C32.0034 15.2868 29.4053 17.6003 26.6929 21.5352C25.5968 23.0051 24.6213 24.5627 23.7761 26.1927C21.0998 28.3667 17.6057 36.7951 15.3564 42.6974C15.0497 43.4868 14.4964 44.9017 14.3821 45.1871L14.328 45.1992ZM13.0049 58.6556H12.9026C12.7382 58.6396 12.5816 58.5764 12.4516 58.4734C12.9974 57.9224 13.5095 57.3384 13.9852 56.7246C14.0533 57.0687 14.1355 57.4047 14.2318 57.7326C14.2738 57.8723 14.3159 57.9998 14.3641 58.1212C13.9723 58.4344 13.497 58.6225 12.9989 58.6617L13.0049 58.6556ZM11.5374 56.84C11.4061 56.4057 11.3016 55.9636 11.2247 55.5162C12.1028 54.2106 13.0289 52.6804 13.919 50.9984C13.7682 52.1292 13.7079 53.2704 13.7386 54.411C13.1017 55.3613 12.3983 56.2644 11.6337 57.1132C11.5976 57.0222 11.5675 56.9311 11.5435 56.84H11.5374ZM9.18594 58.7042H9.07768C8.97383 58.6928 8.87347 58.6597 8.78299 58.607C9.20944 58.1688 9.61102 57.7066 9.98581 57.2225C9.98581 57.259 9.98581 57.2954 9.98581 57.3318C10.0844 57.6429 10.2029 57.9472 10.3406 58.2427C9.99398 58.5146 9.57559 58.6773 9.13782 58.7103L9.18594 58.7042ZM7.5501 56.4756C4.47691 45.3511 15.9698 22.8651 21.7133 14.3698C24.7925 9.83379 27.7274 7.3927 30.1991 6.88869C33.8497 6.13572 35.3231 9.92487 35.6118 10.4046C35.0946 10.0803 34.5142 9.87237 33.9102 9.79483C33.3062 9.71729 32.6928 9.772 32.1116 9.95524C29.4354 10.6961 26.5005 13.1068 23.4513 17.5639C19.2415 23.7638 8.4462 42.6367 9.4265 54.3685C8.96873 55.2688 8.39214 56.1023 7.71248 56.8461C7.65392 56.7298 7.60756 56.6077 7.57416 56.4817L7.5501 56.4756ZM2.90122 56.755C-1.91005 48.1808 12.1509 19.3674 17.8582 11.1211C20.7089 7.00407 23.3491 4.37473 25.7547 3.26349C26.6099 2.85578 27.5398 2.63243 28.4851 2.60767C30.6923 2.60767 31.9192 3.82214 33.11 5.64386C32.7311 5.43739 27.8176 2.22511 20.2037 13.1554C20.1857 13.1493 1.74651 41.7987 5.90826 56.9796C6.01445 57.3216 6.14717 57.6546 6.30519 57.9755C6.08868 58.2852 4.16418 59.0746 2.87115 56.761L2.90122 56.755ZM39.3466 19.586C39.2203 19.5314 39.0038 19.2642 37.837 19.3613C35.3532 19.5739 32.701 21.6931 29.9225 25.6887L28.9663 27.0915C28.5997 26.5776 28.1172 26.1593 27.5588 25.871C27.0003 25.5827 26.3819 25.4328 25.7547 25.4337C26.4464 24.2982 27.2703 23.1141 27.8536 22.2639C30.5961 18.2805 33.2122 16.3251 35.4194 16.0701C38.1197 15.7604 38.9677 18.5476 39.3405 19.5799L39.3466 19.586ZM31.8049 40.9972C31.9913 41.6469 32.1657 42.2906 32.3402 42.9221C30.9268 45.6061 28.6355 49.9114 26.3682 53.4273C27.0558 50.8738 27.9654 48.3866 29.0865 45.9947C30.3555 43.7722 31.3358 41.908 31.8049 40.9911V40.9972ZM19.3377 52.1217C19.7799 49.279 20.5405 46.4962 21.605 43.8269C23.0304 40.3535 27.8356 31.3482 28.3829 30.5041C28.7498 31.3725 29.1347 32.4048 29.5196 33.5403C29.0324 34.3722 28.5332 35.362 27.998 36.3822L27.9559 36.4611C27.7875 36.789 27.559 37.2505 27.2763 37.8153C24.887 42.7248 22.2369 47.5006 19.3377 52.1217ZM26.0855 43.6204C26.9816 41.9262 27.8536 40.2078 28.6956 38.5318C28.9723 37.9731 29.8984 36.1028 30.1991 35.5988C30.5239 36.6311 30.8487 37.706 31.1674 38.7868C30.9268 39.224 30.6803 39.7038 30.4096 40.2199C28.2623 44.4191 25.8518 48.4755 23.1927 52.3646C23.845 49.354 24.8148 46.4225 26.0855 43.6204ZM39.8878 21.3591C40.6877 23.9763 40.5795 23.612 40.6877 24.0431C40.6433 24.0172 40.5942 24.0007 40.5434 23.9945H40.4171C37.9212 23.8427 35.0826 25.8648 31.9673 30.3948C31.4862 29.8544 30.7645 29.0589 29.9225 28.1359C30.5079 27.0752 31.1714 26.0603 31.9071 25.0997C34.409 21.9603 35.9787 20.8491 38.3783 20.7033C38.4264 20.7033 39.6653 20.6608 39.8878 21.3956V21.3591ZM33.3626 30.2977C35.9967 26.551 38.4264 24.7961 40.5795 25.0754C40.6414 25.0781 40.7016 25.0968 40.7542 25.1298C40.8069 25.1628 40.8503 25.2089 40.8802 25.2637C41.0125 25.6098 41.656 28.2209 41.662 28.4638C41.5597 28.4638 41.3613 28.4638 41.259 28.4638C39.3225 28.4638 37.398 29.8665 35.3171 32.7873L34.824 33.516L32.7431 31.2692L33.3626 30.2977ZM35.4314 34.1475C35.6126 33.8178 35.8134 33.4994 36.0328 33.1942C37.9212 30.5648 39.6413 29.2471 41.2771 29.2411C41.2771 29.2411 41.8244 29.2411 41.8785 29.3929C42.7565 32.842 43.6827 37.9306 43.7729 41.2522C43.7729 41.4101 43.7729 41.5437 43.7729 41.6651C43.7729 41.6651 43.7248 42.9282 43.7188 43.0132L35.4314 34.1475ZM42.1912 43.8148C42.7505 44.8167 43.7188 47.3003 43.6346 48.1504C43.0332 46.3287 42.7205 45.0778 42.1912 43.8148ZM43.1415 54.2106C43.0873 54.5021 43.0272 54.7754 42.967 55.0426C42.2754 52.9476 41.3493 49.9478 40.5133 47.027C40.0442 45.3936 39.3105 42.5396 38.9316 41.1672C40.9884 47.2396 42.4198 52.0975 43.1415 54.2106ZM43.382 51.6117C42.8347 49.9357 42.3656 48.3751 41.8184 46.6323C41.3132 45.0232 41.0485 43.8694 40.6636 42.5456C41.9807 46.189 42.4198 47.5432 43.4061 50.5126C43.426 50.8766 43.426 51.2415 43.4061 51.6056L43.382 51.6117ZM49.5765 47.6586C49.7654 50.0846 49.7473 52.5225 49.5224 54.9454C49.2878 57.4411 48.3196 58.7406 47.7182 59.2993C48.2994 58.4088 48.7094 57.416 48.927 56.3724C49.5284 53.9435 49.5705 47.95 49.5284 47.6586H49.5765ZM51.0139 48.8002C51.2264 50.9676 51.2103 53.1518 50.9658 55.3158C50.7132 57.5869 49.763 58.8317 49.1194 59.3418C49.6945 58.5202 50.1183 57.6008 50.3704 56.6274C51.0139 54.4292 51.0139 49.0856 51.0139 48.8002ZM52.3671 49.8871C52.5887 51.834 52.5887 53.8001 52.3671 55.747C52.1325 57.7508 51.2725 58.8924 50.653 59.3418C51.1766 58.6063 51.5694 57.7844 51.8138 56.9128C52.4152 54.9758 52.4152 50.1361 52.3731 49.8993L52.3671 49.8871ZM53.8886 52.6926C54.2615 38.8536 43.7789 18.6873 39.0338 10.3378C35.1367 4.02253 33.0438 1.02886 29.1347 0.555212C28.4562 0.473885 27.7698 0.490241 27.0959 0.603791C25.8073 0.843028 24.5798 1.34288 23.4874 2.0733C21.1419 3.57318 18.6762 6.16001 16.1322 9.88237C11.0022 17.2846 -3.71427 46.6566 0.874472 57.2043C2.35394 60.5988 5.14447 60.7688 7.43584 59.7365C7.85623 60.0942 8.37879 60.3069 8.92733 60.3437C9.75998 60.3588 10.5713 60.0771 11.2187 59.5483C11.6307 59.9757 12.1817 60.2388 12.7703 60.2891C13.6226 60.293 14.4512 60.0063 15.1218 59.4754C15.5052 59.9306 16.0485 60.218 16.6374 60.2769C17.5571 60.2638 18.4428 59.9241 19.1392 59.3175C19.2955 59.5869 19.5115 59.8159 19.7703 59.9866C20.0291 60.1573 20.3237 60.265 20.6307 60.3012C21.4064 60.3166 22.1604 60.0419 22.7477 59.53C22.8918 59.7392 23.0795 59.914 23.2977 60.042C23.5159 60.17 23.7593 60.2481 24.0107 60.2709H24.1369C24.842 60.2086 25.5104 59.9263 26.0494 59.4632C26.5363 59.9318 27.1811 60.1965 27.8536 60.2041C29.7842 60.3012 32.3702 56.4392 34.7879 51.9942C35.2919 53.8353 35.8942 55.6475 36.5921 57.4229C37.38 59.3722 38.3963 60.0705 39.5029 60.283C40.2366 60.4895 47.6159 60.5988 50.3283 60.3984C50.6734 60.3789 51.0112 60.2893 51.3212 60.1348C51.6312 59.9804 51.9072 59.7644 52.1325 59.4997C53.0045 58.4249 53.9969 56.591 53.8465 52.6865" fill="white"/>
</svg>
