<svg width="16" height="16" viewBox="0 0 16 16" fill="none" xmlns="http://www.w3.org/2000/svg">
<path d="M14.0666 1.53345L1.52998 5.71211C1.4651 5.73362 1.40839 5.77456 1.36755 5.82938C1.32671 5.8842 1.30371 5.95025 1.30167 6.01858C1.29964 6.08691 1.31866 6.15422 1.35616 6.21138C1.39366 6.26853 1.44783 6.31278 1.51132 6.33811L7.33332 8.66678L10.2833 14.5668C10.3133 14.6269 10.3608 14.6765 10.4195 14.7091C10.4782 14.7417 10.5454 14.7559 10.6123 14.7497C10.6791 14.7435 10.7426 14.7172 10.7943 14.6744C10.846 14.6315 10.8835 14.574 10.902 14.5094L14.4933 1.94078C14.51 1.88239 14.5103 1.82056 14.4944 1.76198C14.4785 1.70339 14.4468 1.65027 14.4029 1.60835C14.359 1.56642 14.3045 1.53729 14.2452 1.52409C14.1859 1.51089 14.1242 1.51412 14.0666 1.53345Z" fill="#555759"/>
</svg>
