<svg width="18" height="19" viewBox="0 0 18 19" fill="none" xmlns="http://www.w3.org/2000/svg">
<g clip-path="url(#clip0)">
<path d="M16.5001 5.74378V1.67383H12.4301" stroke="#DBDBDB" stroke-width="2" stroke-linecap="round" stroke-linejoin="round"/>
<path d="M11.7544 6.42211L16.5026 1.67383" stroke="#DBDBDB" stroke-width="2" stroke-linecap="round" stroke-linejoin="round"/>
<path d="M15.8231 12.4727V14.5077C15.8239 14.6966 15.7852 14.8836 15.7095 15.0567C15.6338 15.2298 15.5228 15.3852 15.3836 15.5129C15.2444 15.6406 15.08 15.7379 14.9011 15.7984C14.7221 15.8589 14.5325 15.8814 14.3444 15.8644C12.257 15.6376 10.252 14.9243 8.4904 13.7819C6.85145 12.7405 5.4619 11.3509 4.42044 9.71195C3.27406 7.94234 2.56064 5.92757 2.33798 3.83087C2.32103 3.64329 2.34333 3.45423 2.40344 3.27574C2.46356 3.09725 2.56018 2.93323 2.68716 2.79413C2.81414 2.65503 2.96869 2.54389 3.14098 2.46779C3.31326 2.39169 3.49951 2.35229 3.68785 2.35212H5.72283C6.05203 2.34888 6.37117 2.46545 6.62077 2.68011C6.87038 2.89477 7.03341 3.19287 7.07948 3.51884C7.16537 4.17008 7.32466 4.80951 7.55431 5.42493C7.64557 5.66772 7.66533 5.93158 7.61123 6.18526C7.55713 6.43893 7.43144 6.67177 7.24906 6.8562L6.38759 7.71768C7.35322 9.4159 8.75933 10.822 10.4575 11.7876L11.319 10.9262C11.5034 10.7438 11.7363 10.6181 11.99 10.564C12.2436 10.5099 12.5075 10.5296 12.7503 10.6209C13.3657 10.8506 14.0051 11.0098 14.6564 11.0957C14.9859 11.1422 15.2868 11.3082 15.5019 11.5621C15.7171 11.816 15.8314 12.1401 15.8231 12.4727Z" stroke="#DBDBDB" stroke-width="2" stroke-linecap="round" stroke-linejoin="round"/>
</g>
<defs>
<clipPath id="clip0">
<rect width="18" height="18" fill="white" transform="translate(0 0.173828)"/>
</clipPath>
</defs>
</svg>
