<svg width="40" height="41" viewBox="0 0 40 41" fill="none" xmlns="http://www.w3.org/2000/svg">
<path d="M20.9736 9.57084C18.9486 9.58021 17.6574 9.58263 15.837 9.58263C14.3144 9.58263 13.4593 10.194 13.4322 10.5587C13.4073 10.8921 14.1844 11.1617 14.6569 11.4315C15.113 11.712 15.5249 12.6023 15.5249 13.2037V18.4496C15.5249 18.9481 15.4107 19.2953 15.0047 19.6202C14.8113 19.775 14.5814 19.8162 14.3329 19.8149C14.1318 19.8138 13.8583 19.7765 13.67 19.5347C11.6645 16.9595 11.6579 16.6415 8.84843 11.4522C8.71217 11.2005 8.57756 10.9334 8.2985 10.7327C8.01945 10.5319 7.60593 10.3994 6.943 10.3994C4.68482 10.3994 3.2912 10.4319 1.80637 10.4319C0.400906 10.4319 0.536094 11.2869 0.724346 11.6763C2.40935 15.1615 4.1202 18.4894 6.0869 21.8672C8.39007 25.8229 10.4956 28.1989 14.0386 29.9055C14.8609 30.3017 16.3437 30.7106 18.0575 30.7106H21.6989C22.1668 30.7106 22.9445 30.3444 22.9445 29.8525V27.1425C22.9445 26.3675 23.7234 26.0858 24.1484 25.8952C24.649 25.6707 25.174 26.0246 25.4385 26.3051C27.4742 28.4639 27.2428 28.2291 29.0977 30.1621C29.5169 30.5989 29.8334 30.8285 30.6256 30.8285C35.9754 30.8285 35.9799 30.8387 37.2575 30.8285C37.6083 30.8257 38.1293 30.3037 38.2444 30.1002C38.3963 29.8315 38.7418 28.8727 38.1879 28.2513C36.3078 26.1423 34.3915 24.2114 32.5548 22.2948C32.4148 22.1486 32.309 21.9508 32.3051 21.7492C32.3009 21.5288 32.4249 21.3148 32.5548 21.1359C34.6147 18.2997 36.3163 15.898 38.1671 12.9147C38.7687 11.945 38.6909 11.2582 38.5803 11.0216C38.4522 10.7477 38.0579 10.3694 37.6053 10.367C35.1337 10.3532 34.0647 10.3189 31.4282 10.3228C30.6407 10.324 29.9433 10.264 29.5109 11.2045C28.3522 13.7247 26.4616 17.5704 24.8202 19.1691C24.5171 19.4642 24.1123 19.6834 23.7589 19.6851C23.4056 19.6868 23.0299 19.4481 22.9772 18.8771C22.9367 16.1343 22.9704 13.7942 22.9563 11.1071C22.9521 10.2858 22.6029 10.0745 22.338 9.89225C21.9787 9.64505 21.4109 9.56878 20.9736 9.57084Z" fill="#A6A6A6"/>
</svg>
